<svg xmlns="http://www.w3.org/2000/svg" style="border: 0 !important; clip: rect(0 0 0 0) !important; height: 1px !important; margin: -1px !important; overflow: hidden !important; padding: 0 !important; position: absolute !important; width: 1px !important;" class="root-svg-symbols-element">
    <symbol id="shopping-cart" viewBox="0 0 32 32">
        <path d="M0.938 3.813h5.75c0.517 0 0.938 0.421 0.938 0.938 0 0.081-0.119-1.016 1.787 16.132-1.045 0.411-1.787 1.429-1.787 2.618 0 1.551 1.262 2.812 2.812 2.812h1.099c-0.104 0.293-0.161 0.61-0.161 0.938 0 1.551 1.262 2.813 2.813 2.813s2.813-1.262 2.813-2.813c0-0.329-0.057-0.645-0.161-0.938h5.947c-0.104 0.293-0.161 0.61-0.161 0.938 0 1.551 1.262 2.813 2.813 2.813s2.813-1.262 2.813-2.813-1.262-2.813-2.813-2.813h-15c-0.517 0-0.938-0.421-0.938-0.938s0.421-0.938 0.938-0.938h17.162c1.381 0 2.547-0.988 2.774-2.35l1.614-9.683c0.045-0.272-0.031-0.55-0.209-0.76s-0.44-0.332-0.715-0.332h-2.813v-4.688c0-0.518-0.42-0.938-0.938-0.938h-7.5c-0.518 0-0.938 0.42-0.938 0.938v0.938h-4.688c-0.518 0-0.938 0.42-0.938 0.938v2.813h-3.223l-0.527-4.745c-0.031-1.524-1.28-2.755-2.812-2.755h-5.75c-0.518 0-0.938 0.42-0.938 0.938s0.42 0.938 0.938 0.938zM15.125 27.25c0 0.517-0.421 0.938-0.938 0.938s-0.938-0.421-0.938-0.938 0.421-0.938 0.938-0.938 0.938 0.421 0.938 0.938zM25.438 28.188c-0.517 0-0.938-0.421-0.938-0.938 0-0.519 0.421-0.938 0.938-0.938s0.938 0.421 0.938 0.938-0.421 0.938-0.938 0.938zM20.75 5.688h5.625v3.75h-5.625zM15.125 7.563h3.75v1.875h-3.75zM29.956 11.313l-1.432 8.592c-0.076 0.454-0.465 0.783-0.925 0.783h-16.323l-1.042-9.375z"></path>
        <path d="M14.188 18.813c0.518 0 0.938-0.42 0.938-0.938v-3.75c0-0.518-0.42-0.938-0.938-0.938s-0.938 0.42-0.938 0.938v3.75c0 0.518 0.42 0.938 0.938 0.938z"></path>
        <path d="M19.813 18.813c0.518 0 0.938-0.42 0.938-0.938v-3.75c0-0.518-0.42-0.938-0.938-0.938s-0.938 0.42-0.938 0.938v3.75c0 0.518 0.42 0.938 0.938 0.938z"></path>
        <path d="M25.438 18.813c0.518 0 0.938-0.42 0.938-0.938v-3.75c0-0.518-0.42-0.938-0.938-0.938s-0.938 0.42-0.938 0.938v3.75c0 0.518 0.42 0.938 0.938 0.938z"></path>
    </symbol>
    <symbol id="create" viewBox="0 0 32 32">
        <path d="M16 5.688c-5.686 0-10.313 4.626-10.313 10.313s4.626 10.313 10.313 10.313 10.313-4.626 10.313-10.313-4.626-10.313-10.313-10.313zM15.063 24.385c-0.65-0.072-1.278-0.218-1.875-0.43v-5.142h1.875v5.573zM13.866 16.938l2.134-3.735 2.134 3.735h-4.269zM18.813 23.955c-0.597 0.212-1.225 0.358-1.875 0.43v-5.573h1.875v5.142zM20.688 23.012v-5.386l-4.688-8.203-4.688 8.203v5.386c-2.26-1.515-3.75-4.093-3.75-7.012 0-4.652 3.785-8.438 8.438-8.438s8.438 3.785 8.438 8.438c0 2.919-1.49 5.497-3.75 7.012z"></path>
        <path d="M32 19.204v-6.408l-2.495-0.725c-0.287-0.988-0.681-1.94-1.178-2.842l1.252-2.278-4.531-4.531-2.278 1.252c-0.902-0.496-1.854-0.891-2.842-1.178l-0.725-2.495h-6.408l-0.725 2.495c-0.988 0.287-1.94 0.681-2.842 1.178l-2.278-1.252-4.531 4.531 1.252 2.278c-0.496 0.902-0.891 1.854-1.178 2.842l-2.495 0.725v6.408l2.495 0.725c0.287 0.988 0.681 1.94 1.178 2.842l-1.252 2.278 4.531 4.531 2.278-1.252c0.902 0.496 1.854 0.891 2.842 1.178l0.725 2.495h6.408l0.725-2.495c0.988-0.287 1.94-0.681 2.842-1.178l2.278 1.252 4.531-4.531-1.252-2.278c0.496-0.902 0.891-1.854 1.178-2.842l2.495-0.725zM27.957 18.426l-0.13 0.524c-0.291 1.172-0.755 2.291-1.379 3.327l-0.278 0.462 1.088 1.979-2.54 2.54-1.979-1.088-0.462 0.278c-1.036 0.624-2.155 1.087-3.327 1.379l-0.523 0.13-0.63 2.167h-3.592l-0.63-2.168-0.524-0.13c-1.172-0.291-2.291-0.755-3.327-1.379l-0.462-0.278-1.979 1.088-2.54-2.54 1.088-1.979-0.278-0.462c-0.624-1.036-1.087-2.155-1.379-3.327l-0.13-0.523-2.167-0.63v-3.592l2.167-0.63 0.13-0.524c0.291-1.172 0.755-2.291 1.379-3.327l0.278-0.462-1.088-1.979 2.54-2.54 1.979 1.088 0.462-0.278c1.036-0.624 2.155-1.087 3.327-1.379l0.524-0.13 0.63-2.167h3.592l0.63 2.167 0.523 0.13c1.172 0.291 2.291 0.755 3.327 1.379l0.462 0.278 1.979-1.088 2.54 2.54-1.088 1.979 0.278 0.462c0.624 1.036 1.087 2.155 1.379 3.327l0.13 0.524 2.167 0.63v3.592l-2.168 0.63z"></path>
    </symbol>
    <symbol id="table_id" viewBox="0 0 32 32">
        <path d="M29.006 4.231h-26.012c-1.238 0-2.275 0.975-2.275 2.275v18.987c0 1.238 0.975 2.275 2.275 2.275h26.006c1.238 0 2.275-1.038 2.275-2.337v-18.925c0.006-1.231-0.969-2.275-2.269-2.275zM30.044 25.425c0 0.587-0.456 1.038-1.038 1.038h-26.012c-0.587 0-1.038-0.456-1.038-1.038v-18.919c0-0.588 0.456-1.037 1.038-1.037h26.006c0.587 0 1.038 0.456 1.038 1.037v18.919z"></path>
        <path d="M11.125 8.394h-6.763v6.762h6.763v-6.762zM9.887 13.919h-4.225v-4.225h4.225v4.225z"></path>
        <path d="M5.013 18.406h13.456v1.3h-13.456v-1.3z"></path>
        <path d="M5.013 22.5h13.456v1.3h-13.456v-1.3z"></path>
    </symbol>
    <symbol id="table_calendar" viewBox="0 0 32 32">
        <path d="M30.4 2.133h-3.733v-1.6c0-0.295-0.238-0.533-0.533-0.533h-3.733c-0.295 0-0.533 0.238-0.533 0.533v1.6h-11.733v-1.6c0-0.295-0.238-0.533-0.533-0.533h-3.733c-0.295 0-0.533 0.238-0.533 0.533v1.6h-3.733c-0.295 0-0.533 0.238-0.533 0.533v28.8c0 0.295 0.238 0.533 0.533 0.533h28.8c0.295 0 0.533-0.238 0.533-0.533v-28.8c0-0.295-0.238-0.533-0.533-0.533zM22.933 1.067h2.667v3.2h-2.667v-3.2zM6.4 1.067h2.667v3.2h-2.667v-3.2zM2.133 3.2h3.2v1.6c0 0.295 0.238 0.533 0.533 0.533h3.733c0.295 0 0.533-0.238 0.533-0.533v-1.6h11.733v1.6c0 0.295 0.238 0.533 0.533 0.533h3.733c0.295 0 0.533-0.238 0.533-0.533v-1.6h3.2v4.8h-27.733v-4.8zM2.133 30.933v-21.867h27.733v21.867h-27.733z"></path>
        <path d="M20.267 12.267h-14.4v15.467h20.267v-15.467h-5.867zM16.533 13.333h3.733v3.733h-3.733v-3.733zM20.267 21.867h-3.733v-3.733h3.733v3.733zM11.733 18.133h3.733v3.733h-3.733v-3.733zM11.733 13.333h3.733v3.733h-3.733v-3.733zM6.933 13.333h3.733v3.733h-3.733v-3.733zM6.933 18.133h3.733v3.733h-3.733v-3.733zM10.667 26.667h-3.733v-3.733h3.733v3.733zM15.467 26.667h-3.733v-3.733h3.733v3.733zM20.267 26.667h-3.733v-3.733h3.733v3.733zM25.067 26.667h-3.733v-3.733h3.733v3.733zM25.067 21.867h-3.733v-3.733h3.733v3.733zM25.067 13.333v3.733h-3.733v-3.733h3.733z"></path>
    </symbol>
    <symbol id="table_product" viewBox="0 0 32 32">
        <path d="M32 17.067v-2.133c0-0.295-0.239-0.533-0.533-0.533h-8v-10.667c0-0.295-0.239-0.533-0.533-0.533h-4.326c0.72-0.7 1.126-1.662 1.126-2.667 0-0.295-0.239-0.533-0.533-0.533-1.312 0.002-2.527 0.693-3.2 1.82-0.673-1.127-1.888-1.818-3.2-1.82-0.295 0-0.533 0.239-0.533 0.533-0 1.004 0.406 1.966 1.126 2.667h-4.326c-0.295 0-0.533 0.239-0.533 0.533v10.667h-8c-0.295 0-0.533 0.239-0.533 0.533v2.133c0 0.295 0.239 0.533 0.533 0.533h17.514l-3.2 1.067h-7.914c-0.141 0-0.277 0.056-0.377 0.156l-2.29 2.29-0.69-0.69c-0.208-0.208-0.546-0.208-0.754 0l-2.667 2.667c-0.208 0.208-0.208 0.546 0 0.754l8 8c0.208 0.208 0.546 0.208 0.754 0l2.667-2.667c0.208-0.208 0.208-0.546 0-0.754l-0.088-0.088 3.082-2.202h10.496c0.133 0 0.262-0.050 0.361-0.14l5.799-5.316c0.875-0.8 1.027-2.122 0.357-3.101 0.241-0.052 0.414-0.264 0.416-0.51zM18.598 1.135c-0.232 0.991-1.006 1.765-1.997 1.997 0.232-0.991 1.006-1.765 1.997-1.997zM15.398 3.132c-0.991-0.232-1.765-1.006-1.997-1.997 0.991 0.232 1.765 1.006 1.997 1.997zM9.6 4.267h12.8v10.133h-5.733l4.56-6.080c0.142-0.19 0.142-0.45 0-0.64l-1.6-2.133c-0.101-0.134-0.259-0.213-0.427-0.213h-6.4c-0.168 0-0.326 0.079-0.427 0.213l-1.6 2.133c-0.142 0.19-0.142 0.45 0 0.64l4.56 6.080h-5.733v-10.133zM13.493 8.533l1.155 3.175-2.381-3.175h1.227zM12.267 7.467l0.8-1.067h1.646l-1.067 1.067h-1.379zM14.628 8.533h2.745l-1.372 3.773-1.372-3.773zM15.154 7.467l0.846-0.846 0.846 0.846h-1.692zM18.354 7.467l-1.067-1.067h1.646l0.8 1.067h-1.379zM19.733 8.533l-2.381 3.175 1.155-3.175h1.227zM1.067 16.533v-1.067h29.867v1.067h-29.867zM22.795 17.907c-0.057-0.108-0.123-0.21-0.197-0.306h4.799l-3.6 3.2h-1.893c1.045-0.553 1.444-1.849 0.891-2.894zM8.533 30.713l-7.246-7.246 1.913-1.913 7.246 7.246-1.913 1.913zM30.507 19.893l-5.647 5.173h-10.459c-0.111 0-0.219 0.035-0.31 0.099l-3.366 2.404-5.703-5.703 2.133-2.133h7.779c0.057 0 0.114-0.009 0.169-0.027l5.456-1.819c0.564-0.189 1.175 0.115 1.364 0.679s-0.115 1.175-0.679 1.364c-0.020 0.007-0.041 0.013-0.061 0.019l-3.12 0.851h-1.529v1.067h7.467c0.131 0 0.257-0.048 0.354-0.134l4.275-3.799c0.241-0.214 0.553-0.333 0.875-0.333h0.11c0.728-0.003 1.321 0.586 1.323 1.314 0.001 0.373-0.155 0.729-0.431 0.98z"></path>
        <path d="M2.29 23.311l0.754-0.754 1.6 1.6-0.754 0.754-1.6-1.6z"></path>
        <path d="M25.067 2.133h1.067v1.067h-1.067v-1.067z"></path>
        <path d="M26.133 1.067h1.067v1.067h-1.067v-1.067z"></path>
        <path d="M27.2 2.133h1.067v1.067h-1.067v-1.067z"></path>
        <path d="M26.133 3.2h1.067v1.067h-1.067v-1.067z"></path>
        <path d="M30.933 0.533h1.067v1.067h-1.067v-1.067z"></path>
        <path d="M26.667 6.4h1.067v1.067h-1.067v-1.067z"></path>
        <path d="M4.8 5.867h1.067v1.067h-1.067v-1.067z"></path>
        <path d="M4.8 8h1.067v1.067h-1.067v-1.067z"></path>
        <path d="M5.867 6.933h1.067v1.067h-1.067v-1.067z"></path>
        <path d="M3.733 6.933h1.067v1.067h-1.067v-1.067z"></path>
        <path d="M0 3.2h1.067v1.067h-1.067v-1.067z"></path>
        <path d="M4.8 0.533h1.067v1.067h-1.067v-1.067z"></path>
    </symbol>
    <symbol id="table_user-name" viewBox="0 0 32 32">
        <path d="M29.234 5.25h-26.468c-1.525 0-2.766 1.241-2.766 2.766v15.949c0 1.525 1.241 2.766 2.766 2.766h26.468c1.525 0 2.766-1.241 2.766-2.766v-15.949c0-1.525-1.241-2.766-2.766-2.766zM31.050 23.965c0 1.001-0.814 1.815-1.815 1.815h-26.468c-1.001 0-1.815-0.814-1.815-1.815v-15.949c0-1.001 0.814-1.815 1.815-1.815h26.468c1.001 0 1.815 0.814 1.815 1.815z"></path>
        <path d="M14.226 9.052h-11.026c-0.262 0-0.475 0.213-0.475 0.475v1.14c0 0.262 0.213 0.475 0.475 0.475s0.475-0.213 0.475-0.475v-0.665h10.075v11.596h-10.075v-9.030c0-0.262-0.213-0.475-0.475-0.475s-0.475 0.213-0.475 0.475v9.505c0 0.262 0.213 0.475 0.475 0.475h11.026c0.262 0 0.475-0.213 0.475-0.475v-12.546c0-0.263-0.213-0.475-0.475-0.475z"></path>
        <path d="M28.927 10.154h-11.913c-0.262 0-0.475 0.213-0.475 0.475s0.213 0.475 0.475 0.475h11.913c0.262 0 0.475-0.213 0.475-0.475s-0.213-0.475-0.475-0.475z"></path>
        <path d="M28.927 13.602h-2.661c-0.262 0-0.475 0.213-0.475 0.475s0.213 0.475 0.475 0.475h2.661c0.262 0 0.475-0.213 0.475-0.475s-0.213-0.475-0.475-0.475z"></path>
        <path d="M17.014 14.552h7.35c0.262 0 0.475-0.213 0.475-0.475s-0.213-0.475-0.475-0.475h-7.35c-0.262 0-0.475 0.213-0.475 0.475s0.213 0.475 0.475 0.475z"></path>
        <path d="M28.927 17.049h-11.913c-0.262 0-0.475 0.213-0.475 0.475s0.213 0.475 0.475 0.475h11.913c0.262 0 0.475-0.213 0.475-0.475s-0.213-0.475-0.475-0.475z"></path>
        <path d="M23.478 20.497h-6.463c-0.262 0-0.475 0.213-0.475 0.475s0.213 0.475 0.475 0.475h6.463c0.262 0 0.475-0.213 0.475-0.475s-0.213-0.475-0.475-0.475z"></path>
        <path d="M5.386 20.553c0 0.262 0.213 0.475 0.475 0.475s0.475-0.213 0.475-0.475c0-1.31 1.066-2.376 2.376-2.376s2.376 1.066 2.376 2.376c0 0.262 0.213 0.475 0.475 0.475s0.475-0.213 0.475-0.475c0-1.209-0.648-2.269-1.615-2.852 0.967-0.583 1.615-1.643 1.615-2.852 0-1.834-1.492-3.327-3.327-3.327s-3.327 1.492-3.327 3.327c0 1.209 0.648 2.269 1.615 2.852-0.967 0.583-1.615 1.643-1.615 2.852zM6.337 14.85c0-1.31 1.066-2.376 2.376-2.376s2.376 1.066 2.376 2.376-1.066 2.376-2.376 2.376-2.376-1.066-2.376-2.376z"></path>
    </symbol>
    <symbol id="table_phone" viewBox="0 0 32 32">
        <path d="M31.978 26.338c-0.102-0.769-0.546-1.432-1.218-1.819l-7.895-4.545c-0.967-0.557-2.194-0.395-2.983 0.395l-1.555 1.555c-0.414 0.414-1.068 0.45-1.522 0.085-1.226-0.986-2.433-2.072-3.587-3.227s-2.24-2.361-3.227-3.587c-0.365-0.454-0.329-1.109 0.085-1.522l1.555-1.555c0.789-0.789 0.951-2.016 0.395-2.983l-4.545-7.895c-0.387-0.672-1.050-1.116-1.819-1.218s-1.525 0.155-2.073 0.703l-2.343 2.343c-1.635 1.635-1.662 4.627-0.074 8.423 1.527 3.65 4.375 7.669 8.022 11.315s7.665 6.495 11.315 8.022c1.869 0.781 3.542 1.172 4.955 1.172 1.457 0 2.638-0.416 3.468-1.246l2.343-2.343c0.548-0.548 0.805-1.304 0.703-2.073zM22.349 20.872l7.895 4.545c0.39 0.225 0.648 0.61 0.707 1.056 0.050 0.375-0.048 0.744-0.268 1.041l-10.492-5.988 0.426-0.426c0.458-0.458 1.171-0.552 1.732-0.229zM5.526 1.050c0.447 0.059 0.832 0.317 1.056 0.707l4.545 7.895c0.323 0.562 0.229 1.274-0.229 1.732l-0.391 0.391-6.021-10.457c0.246-0.182 0.54-0.281 0.847-0.281 0.064 0 0.128 0.004 0.192 0.013zM28.199 30.021c-1.299 1.299-3.956 1.245-7.29-0.149-3.529-1.476-7.429-4.245-10.982-7.798s-6.323-7.453-7.798-10.982c-1.394-3.334-1.449-5.991-0.149-7.29l1.739-1.739 6.030 10.473-0.404 0.404c-0.789 0.789-0.858 2.038-0.16 2.906 1.010 1.255 2.12 2.49 3.301 3.67s2.416 2.291 3.671 3.301c0.867 0.698 2.116 0.629 2.906-0.16l0.369-0.369 10.506 5.996-1.738 1.738z"></path>
    </symbol>
    <symbol id="table_total" viewBox="0 0 32 32">
        <path d="M27.314 4.686c-3.022-3.022-7.040-4.686-11.314-4.686s-8.292 1.664-11.314 4.686c-3.022 3.022-4.686 7.040-4.686 11.314s1.664 8.292 4.686 11.314c3.022 3.022 7.040 4.686 11.314 4.686s8.292-1.664 11.314-4.686c3.022-3.022 4.686-7.040 4.686-11.314s-1.664-8.292-4.686-11.314zM16 30.979c-8.259 0-14.979-6.719-14.979-14.979s6.719-14.979 14.979-14.979 14.979 6.719 14.979 14.979-6.719 14.979-14.979 14.979z"></path>
        <path d="M19.745 24.692h-7.489c-0.282 0-0.511 0.229-0.511 0.511s0.229 0.511 0.511 0.511h7.489c0.282 0 0.511-0.229 0.511-0.511s-0.229-0.511-0.511-0.511z"></path>
        <path d="M21.714 19.241v-9.733c0-0.282-0.229-0.511-0.511-0.511h-10.406c-0.282 0-0.511 0.229-0.511 0.511v9.733c0 0.879 0.642 1.819 1.461 2.139l4.067 1.589c0.060 0.023 0.123 0.035 0.186 0.035s0.126-0.012 0.186-0.035l4.067-1.589c0.819-0.32 1.461-1.259 1.461-2.139zM20.693 19.241c0 0.464-0.379 1.019-0.811 1.188l-3.881 1.516-3.881-1.516c-0.432-0.169-0.811-0.724-0.811-1.188v-9.223h9.385v9.223z"></path>
        <path d="M12.839 19.751h2.65v0.17c0 0.282 0.229 0.511 0.511 0.511s0.511-0.229 0.511-0.511v-0.17h2.65c0.282 0 0.511-0.229 0.511-0.511v-7.326c0-0.282-0.229-0.511-0.511-0.511-1.483 0-2.099 2.844-2.331 4.474h-0.319v-4.329c0-0.282-0.229-0.511-0.511-0.511s-0.511 0.229-0.511 0.511v4.329h-0.319c-0.231-1.63-0.847-4.474-2.331-4.474-0.282 0-0.511 0.229-0.511 0.511v7.326c-0 0.282 0.229 0.511 0.511 0.511zM18.491 13.361c0.055-0.132 0.108-0.247 0.159-0.346v2.864h-0.788c0.15-1.015 0.365-1.878 0.629-2.518zM18.65 16.9v1.83h-2.139v-1.83h2.139zM15.489 18.73h-2.139v-1.83h2.139v1.83zM13.509 13.361c0.264 0.639 0.479 1.502 0.629 2.518h-0.788v-2.864c0.051 0.099 0.105 0.213 0.159 0.346z"></path>
        <path d="M22.022 5.827c-0.171-0.224-0.492-0.267-0.716-0.096l-1.562 1.193-1.563-1.193c-0.183-0.14-0.437-0.14-0.62 0l-1.562 1.193-1.562-1.193c-0.183-0.14-0.437-0.14-0.62 0l-1.562 1.193-1.562-1.193c-0.224-0.171-0.545-0.128-0.716 0.096s-0.128 0.545 0.096 0.716l1.872 1.43c0.092 0.070 0.201 0.105 0.31 0.105s0.218-0.035 0.31-0.105l1.562-1.193 1.562 1.193c0.183 0.14 0.437 0.14 0.62 0l1.562-1.193 1.563 1.193c0.183 0.14 0.437 0.14 0.62 0l1.872-1.43c0.224-0.171 0.267-0.492 0.096-0.716z"></path>
        <path d="M6.046 11.404c-0.282 0-0.511 0.229-0.511 0.511v5.298c0 1.234 0.885 2.264 2.053 2.491 0.12 1.153 0.68 2.305 1.549 3.154 0.099 0.097 0.228 0.145 0.357 0.145 0.133 0 0.265-0.051 0.365-0.154 0.197-0.202 0.194-0.525-0.008-0.722-0.793-0.775-1.266-1.855-1.266-2.887v-7.326c0-0.282-0.229-0.511-0.511-0.511s-0.511 0.229-0.511 0.511v0.256c-0.158-0.055-0.327-0.086-0.503-0.086s-0.346 0.030-0.503 0.086v-0.256c0-0.282-0.229-0.511-0.511-0.511zM6.556 13.61c0-0.277 0.226-0.503 0.503-0.503s0.503 0.226 0.503 0.503v5.032c-0.586-0.21-1.007-0.771-1.007-1.429-0 0-0-3.602 0-3.603z"></path>
        <path d="M22.507 23.004c0.129 0 0.258-0.048 0.357-0.145 0.869-0.849 1.428-2.001 1.549-3.154 1.168-0.227 2.053-1.258 2.053-2.491v-5.298c0-0.282-0.229-0.511-0.511-0.511s-0.511 0.229-0.511 0.511v0.256c-0.158-0.055-0.327-0.086-0.503-0.086s-0.346 0.030-0.503 0.086v-0.256c0-0.282-0.229-0.511-0.511-0.511s-0.511 0.229-0.511 0.511v7.326c0 1.033-0.473 2.112-1.266 2.887-0.202 0.197-0.205 0.52-0.008 0.722 0.1 0.102 0.233 0.154 0.365 0.154zM24.94 13.106c0.277 0 0.503 0.226 0.503 0.503v3.603c0 0.657-0.421 1.218-1.007 1.429v-5.032c0-0.277 0.226-0.503 0.503-0.503z"></path>
        <path d="M16 1.736c-7.865 0-14.264 6.399-14.264 14.264s6.399 14.264 14.264 14.264c3.418 0 6.724-1.228 9.309-3.457 0.214-0.184 0.237-0.507 0.053-0.72s-0.507-0.237-0.72-0.053c-2.4 2.069-5.469 3.209-8.642 3.209-7.302 0-13.243-5.941-13.243-13.243s5.941-13.243 13.243-13.243 13.243 5.941 13.243 13.243c0 3.173-1.14 6.242-3.209 8.642-0.184 0.214-0.16 0.536 0.053 0.72s0.536 0.16 0.72-0.053c2.229-2.586 3.457-5.892 3.457-9.309 0-7.865-6.399-14.264-14.264-14.264z"></path>
    </symbol>
    <symbol id="table_paid" viewBox="0 0 32 32">
        <path d="M20.731 9.18h-1.868v-0.128c0-1.585-1.627-2.649-3.074-2.029-1.445-0.62-3.074 0.442-3.074 2.029v0.128h-1.154c-0.449 0-0.815 0.366-0.815 0.815v8.029c0 0.449 0.366 0.815 0.815 0.815h9.17c0.449 0 0.815-0.366 0.815-0.815v-8.028c0-0.449-0.366-0.815-0.815-0.815zM17.92 9.052v0.128h-0.791c-0.009-0.064 0.071-0.717-0.396-1.387 0.661 0.039 1.188 0.588 1.188 1.259zM15.79 8.137c0.462 0.438 0.388 1.003 0.396 1.044h-0.791c0.009-0.047-0.075-0.597 0.396-1.044zM13.659 9.052c0-0.671 0.526-1.22 1.188-1.259-0.459 0.657-0.389 1.338-0.396 1.387h-0.791v-0.128zM17.932 17.895h-6.241v-7.771h1.026v0.694c0 0.261 0.211 0.472 0.472 0.472s0.472-0.211 0.472-0.472v-0.694h2.526v0.694c0 0.261 0.211 0.472 0.472 0.472s0.472-0.211 0.472-0.472v-0.694h0.803v7.771zM19.282 17.895h-0.407v-7.771h0.407v7.771zM20.603 17.895h-0.377v-7.771h0.377v7.771z"></path>
        <path d="M12.675 20.395h-1.065c-0.189 0-0.291 0.125-0.291 0.243v3.443c0 0.171 0.195 0.249 0.376 0.249 0.187 0 0.376-0.085 0.376-0.249v-1.197c0.226-0.054 1.838 0.321 1.838-1.234v-0.032c-0-0.789-0.438-1.223-1.234-1.223zM13.157 21.703c0 0.378-0.181 0.578-0.525 0.578h-0.562v-1.219h0.562c0.589-0 0.519 0.62 0.525 0.641z"></path>
        <path d="M16.798 23.963l-1.026-3.345c-0.102-0.341-0.842-0.341-0.945-0-1.048 3.426-1.034 3.35-1.034 3.394 0 0.197 0.65 0.458 0.729 0.157l0.195-0.682h1.165c0.216 0.661 0.138 0.842 0.458 0.842 0.216-0 0.514-0.153 0.457-0.366zM14.878 22.884l0.419-1.479 0.419 1.479h-0.838z"></path>
        <path d="M17.109 20.638v3.443c0 0.334 0.751 0.329 0.751 0v-3.443c0-0.323-0.751-0.329-0.751 0z"></path>
        <path d="M19.704 20.395h-0.938c-0.187 0-0.333 0.107-0.333 0.243v3.448c0 0.136 0.146 0.243 0.333 0.243h0.938c0.823 0 1.276-0.442 1.276-1.244v-1.446c0-0.802-0.453-1.244-1.276-1.244zM20.229 23.085c0 0.802-0.737 0.521-1.044 0.578v-2.601c0.295 0.055 1.044-0.225 1.044 0.578v1.446z"></path>
        <path d="M22.186 0h-5.373c-0.261 0-0.472 0.211-0.472 0.472s0.211 0.472 0.472 0.472h5.373c0.739 0 1.34 0.601 1.34 1.341v1.247c-0.388-0.282-0.855-0.435-1.34-0.435h-11.429c-0.261 0-0.472 0.211-0.472 0.472s0.211 0.472 0.472 0.472h11.429c0.335 0 0.655 0.124 0.902 0.349 0.062 0.056 0.274 0.243 0.438 0.355 0 1.14 0 21.991 0 22.741 0 0.739-0.601 1.34-1.34 1.34h-9.92c-0.261 0-0.472 0.211-0.472 0.472s0.211 0.472 0.472 0.472h9.92c0.5 0 0.964-0.162 1.34-0.436v0.385c0 0.739-0.601 1.34-1.34 1.34h-12.373c-0.739 0-1.341-0.601-1.341-1.34v-0.385c0.806 0.586 1.572 0.401 1.906 0.436 0.261 0 0.472-0.211 0.472-0.472s-0.211-0.472-0.472-0.472h-0.566c-0.739 0-1.341-0.601-1.341-1.34 0-1.040 0-21.193 0-22.104 0-0.479 0.258-0.925 0.674-1.164 0.226-0.13 0.304-0.418 0.174-0.644s-0.418-0.304-0.644-0.174c-0.071 0.041-0.139 0.086-0.204 0.134v-1.248c0-0.739 0.601-1.341 1.341-1.341h5.113c0.261 0 0.472-0.211 0.472-0.472s-0.211-0.472-0.472-0.472h-5.113c-1.259 0-2.284 1.025-2.284 2.284 0 0.644 0 24.39 0 25.199v2.233c0 1.259 1.025 2.284 2.284 2.284h12.373c1.259 0 2.284-1.025 2.284-2.284 0-1.784 0-26.44 0-27.432 0-1.259-1.024-2.284-2.284-2.284z"></path>
        <path d="M17.32 1.613h-4.704c-0.261 0-0.472 0.211-0.472 0.472s0.211 0.472 0.472 0.472h4.704c0.261 0 0.472-0.211 0.472-0.472s-0.211-0.472-0.472-0.472z"></path>
        <path d="M19.636 2.085c0 0.33-0.267 0.597-0.597 0.597s-0.597-0.267-0.597-0.597c0-0.33 0.267-0.597 0.597-0.597s0.597 0.267 0.597 0.597z"></path>
        <path d="M16.949 12.737c-0.172-0.196-0.47-0.214-0.666-0.042l-1.769 1.558-0.746-0.63c-0.199-0.168-0.497-0.143-0.665 0.056s-0.143 0.497 0.056 0.665c1.018 0.816 1.065 1.004 1.361 1.004 0.111 0 0.223-0.039 0.312-0.118l2.075-1.827c0.195-0.172 0.214-0.47 0.042-0.666z"></path>
    </symbol>
    <symbol id="table_sent" viewBox="0 0 32 32">
        <path d="M31.685 0.082c-0.195-0.111-0.435-0.109-0.628 0.005l-11.453 6.773c-0.297 0.176-0.396 0.559-0.22 0.856s0.559 0.396 0.856 0.22l8.218-4.859-15.307 15.882-7.613-2.329 9.935-5.875c0.297-0.176 0.396-0.559 0.22-0.856s-0.559-0.396-0.856-0.22l-11.155 6.596c-0.213 0.126-0.332 0.366-0.303 0.612s0.201 0.451 0.438 0.524l9.092 2.782 4.011 7.301c0.004 0.008 0.009 0.014 0.013 0.020 0.067 0.112 0.167 0.203 0.292 0.255 0.078 0.033 0.161 0.049 0.242 0.049 0.16 0 0.318-0.062 0.437-0.178l4.612-4.508 8.675 2.654c0.060 0.018 0.122 0.027 0.183 0.027 0.132 0 0.263-0.042 0.372-0.123 0.159-0.118 0.253-0.304 0.253-0.502v-24.563c0-0.224-0.12-0.432-0.315-0.543zM16.954 20.577c-0.072 0.105-0.111 0.229-0.111 0.356v3.823l-2.739-4.985 12.12-12.576-9.27 13.382zM18.093 25.707v-3.929l3.062 0.937-3.062 2.992zM30.75 24.343l-12.281-3.757 12.281-17.729v21.486z"></path>
        <path d="M10.276 21.724c-0.244-0.244-0.64-0.244-0.884 0l-5.835 5.834c-0.244 0.244-0.244 0.64 0 0.884 0.122 0.122 0.282 0.183 0.442 0.183s0.32-0.061 0.442-0.183l5.835-5.834c0.244-0.244 0.244-0.64 0-0.884z"></path>
        <path d="M2.504 29.495c-0.244-0.244-0.64-0.244-0.884 0l-1.438 1.438c-0.244 0.244-0.244 0.64 0 0.884 0.122 0.122 0.282 0.183 0.442 0.183s0.32-0.061 0.442-0.183l1.438-1.438c0.244-0.244 0.244-0.64 0-0.884z"></path>
        <path d="M8.916 30.896c-0.116-0.116-0.277-0.183-0.442-0.183s-0.326 0.067-0.442 0.183-0.183 0.277-0.183 0.442c0 0.164 0.067 0.326 0.183 0.442s0.277 0.183 0.442 0.183 0.326-0.067 0.442-0.183c0.116-0.116 0.183-0.277 0.183-0.442s-0.067-0.326-0.183-0.442z"></path>
        <path d="M13.566 26.246c-0.244-0.244-0.64-0.244-0.884 0l-3.090 3.090c-0.244 0.244-0.244 0.64 0 0.884 0.122 0.122 0.282 0.183 0.442 0.183s0.32-0.061 0.442-0.183l3.090-3.090c0.244-0.244 0.244-0.64 0-0.884z"></path>
        <path d="M24.232 26.009c-0.244-0.244-0.64-0.244-0.884 0l-3.099 3.099c-0.244 0.244-0.244 0.64 0 0.884 0.122 0.122 0.282 0.183 0.442 0.183s0.32-0.061 0.442-0.183l3.099-3.099c0.244-0.244 0.244-0.64 0-0.884z"></path>
        <path d="M17.719 8.519c-0.116-0.116-0.277-0.183-0.442-0.183s-0.326 0.067-0.442 0.183c-0.116 0.116-0.183 0.277-0.183 0.443s0.067 0.325 0.183 0.441c0.116 0.117 0.277 0.183 0.442 0.183s0.326-0.066 0.442-0.183c0.116-0.116 0.183-0.277 0.183-0.441s-0.067-0.326-0.183-0.443z"></path>
    </symbol>
</svg>